<svg width="30" height="30" viewBox="0 0 30 30" fill="none" xmlns="http://www.w3.org/2000/svg">
<path d="M28.1759 21.0073L18.1464 3.43619C17.7409 2.76597 17.1821 2.2144 16.5217 1.83233C15.8612 1.45027 15.1204 1.25 14.3674 1.25C13.6144 1.25 12.8735 1.45027 12.2131 1.83233C11.5527 2.2144 10.9939 2.76597 10.5884 3.43619L0.558885 21.0073C0.204589 21.6312 0.0120218 22.3426 0.00054486 23.0701C-0.0109321 23.7975 0.159085 24.5154 0.493503 25.1514C0.880141 25.8673 1.43978 26.462 2.11522 26.8745C2.79066 27.2871 3.55769 27.5029 4.33792 27.4997H24.3969C25.172 27.5085 25.9355 27.3011 26.6105 26.8985C27.2855 26.4959 27.848 25.9123 28.2413 25.2067C28.5855 24.564 28.761 23.8359 28.7495 23.0976C28.738 22.3593 28.54 21.6376 28.1759 21.0073V21.0073ZM25.9529 23.8391C25.7958 24.1245 25.5677 24.359 25.2934 24.5173C25.0191 24.6755 24.7091 24.7515 24.3969 24.737H4.33792C4.02569 24.7515 3.71564 24.6755 3.44136 24.5173C3.16707 24.359 2.939 24.1245 2.78184 23.8391C2.66708 23.6291 2.60666 23.3909 2.60666 23.1484C2.60666 22.9059 2.66708 22.6677 2.78184 22.4577L12.8244 4.87282C13.0049 4.62101 13.2381 4.41678 13.5058 4.27617C13.7735 4.13556 14.0684 4.06238 14.3674 4.06238C14.6664 4.06238 14.9613 4.13556 15.229 4.27617C15.4967 4.41678 15.7299 4.62101 15.9104 4.87282L25.9399 22.4439C26.0591 22.6543 26.1231 22.8944 26.1254 23.1396C26.1277 23.3848 26.0682 23.6262 25.9529 23.8391V23.8391Z" fill="#777C9B"/>
<path d="M14.375 22.5C15.4105 22.5 16.25 21.6605 16.25 20.625C16.25 19.5895 15.4105 18.75 14.375 18.75C13.3395 18.75 12.5 19.5895 12.5 20.625C12.5 21.6605 13.3395 22.5 14.375 22.5Z" fill="#777C9B"/>
<path d="M14.375 8.75C13.8777 8.75 13.4008 8.90365 13.0492 9.17714C12.6975 9.45063 12.5 9.82156 12.5 10.2083V16.0417C12.5 16.4284 12.6975 16.7994 13.0492 17.0729C13.4008 17.3464 13.8777 17.5 14.375 17.5C14.8723 17.5 15.3492 17.3464 15.7008 17.0729C16.0525 16.7994 16.25 16.4284 16.25 16.0417V10.2083C16.25 9.82156 16.0525 9.45063 15.7008 9.17714C15.3492 8.90365 14.8723 8.75 14.375 8.75Z" fill="#777C9B"/>
</svg>
