<svg width="30" height="30" viewBox="0 0 30 30" fill="none" xmlns="http://www.w3.org/2000/svg">
<path d="M25.392 8.976C24.3449 7.16127 22.8378 5.65465 21.0228 4.608C19.1832 3.5364 17.1756 3 15 3C12.8244 3 10.8168 3.5364 8.976 4.608C7.1364 5.6796 5.6796 7.1364 4.608 8.976C3.5364 10.8156 3 12.8244 3 15C3 17.1756 3.5352 19.1844 4.608 21.024C5.65479 22.839 7.16191 24.3457 8.9772 25.392C10.8168 26.4636 12.8244 27 15 27C17.1756 27 19.1832 26.4636 21.024 25.392C22.839 24.3453 24.346 22.8387 25.3932 21.024C26.4648 19.1844 27 17.1756 27 15C27 12.8244 26.4648 10.8156 25.392 8.976ZM15 4.992C17.4 4.992 19.5264 5.76 21.384 7.2948C20.28 8.7036 18.6408 9.8628 16.464 10.7748C15.2616 8.5992 13.9584 6.7824 12.5508 5.3268C13.3486 5.10622 14.1723 4.99361 15 4.992V4.992ZM7.212 8.76C8.08949 7.64571 9.19976 6.73653 10.4652 6.096C11.9196 7.5372 13.2552 9.336 14.4732 11.496C12.0732 12.216 9.5364 12.576 6.864 12.576C6.1764 12.576 5.6568 12.5604 5.304 12.528C5.67177 11.1533 6.32154 9.87007 7.212 8.76V8.76ZM4.992 15C4.992 14.9352 4.9956 14.856 5.004 14.76C5.0124 14.664 5.016 14.5848 5.016 14.52C5.3208 14.5368 5.7852 14.544 6.4092 14.544C9.6084 14.544 12.5844 14.1036 15.336 13.224C15.5604 13.6716 15.7932 14.1756 16.032 14.736C14.448 15.0876 12.8232 15.9432 11.1588 17.304C9.4944 18.6648 8.28 20.0964 7.512 21.6C5.832 19.6956 4.992 17.496 4.992 15V15ZM15 25.008C12.7272 25.008 10.6872 24.3036 8.8788 22.8972C9.6 21.4728 10.7076 20.1108 12.204 18.816C13.6992 17.52 15.1836 16.7124 16.656 16.392C17.5848 18.9588 18.213 21.6246 18.528 24.336C17.4034 24.7754 16.2074 25.0033 15 25.008V25.008ZM23.496 20.256C22.7105 21.5214 21.6529 22.5959 20.4 23.4012C20.112 20.9052 19.56 18.4728 18.7452 16.104C19.8636 16.0248 20.8632 15.984 21.7452 15.984C22.704 15.984 23.7684 16.0248 24.936 16.104C24.7794 17.5798 24.2868 19.0001 23.496 20.256ZM22.008 14.256C20.616 14.256 19.3284 14.3124 18.144 14.424C17.8931 13.7673 17.621 13.119 17.328 12.48C19.8072 11.3928 21.5664 10.0728 22.6068 8.52C24.0468 10.2168 24.8316 12.1524 24.9588 14.328C23.9844 14.28 23.0004 14.256 22.008 14.256V14.256Z" fill="#777C9B"/>
</svg>
