<svg width="30" height="30" viewBox="0 0 30 30" fill="none" xmlns="http://www.w3.org/2000/svg">
<path d="M23.75 5H6.25C5.25544 5 4.30161 5.39509 3.59835 6.09835C2.89509 6.80161 2.5 7.75544 2.5 8.75V21.25C2.5 22.2446 2.89509 23.1984 3.59835 23.9017C4.30161 24.6049 5.25544 25 6.25 25H23.75C24.7446 25 25.6984 24.6049 26.4017 23.9017C27.1049 23.1984 27.5 22.2446 27.5 21.25V8.75C27.5 7.75544 27.1049 6.80161 26.4017 6.09835C25.6984 5.39509 24.7446 5 23.75 5V5ZM22.9125 7.5L15 13.4375L7.0875 7.5H22.9125ZM23.75 22.5H6.25C5.91848 22.5 5.60054 22.3683 5.36612 22.1339C5.1317 21.8995 5 21.5815 5 21.25V9.0625L14.25 16C14.4664 16.1623 14.7295 16.25 15 16.25C15.2705 16.25 15.5336 16.1623 15.75 16L25 9.0625V21.25C25 21.5815 24.8683 21.8995 24.6339 22.1339C24.3995 22.3683 24.0815 22.5 23.75 22.5Z" fill="#777C9B"/>
</svg>
