<svg width="30" height="30" viewBox="0 0 30 30" fill="none" xmlns="http://www.w3.org/2000/svg">
<path d="M15.0032 21.1572C18.4105 21.1572 21.1603 18.4073 21.1603 15C21.1603 11.5927 18.4105 8.84284 15.0032 8.84284C11.596 8.84284 8.84618 11.5927 8.84618 15C8.84618 18.4073 11.596 21.1572 15.0032 21.1572ZM15.0032 10.9983C17.2067 10.9983 19.0049 12.7965 19.0049 15C19.0049 17.2035 17.2067 19.0017 15.0032 19.0017C12.7998 19.0017 11.0016 17.2035 11.0016 15C11.0016 12.7965 12.7998 10.9983 15.0032 10.9983ZM8.59401 22.8443C9.38954 22.8443 10.032 22.2019 10.032 21.4063C10.032 20.6108 9.38954 19.9684 8.59401 19.9684C7.79849 19.9684 7.15607 20.6078 7.15607 21.4063C7.15583 21.5952 7.19286 21.7823 7.26504 21.9569C7.33722 22.1315 7.44313 22.2901 7.5767 22.4237C7.71028 22.5572 7.86889 22.6631 8.04345 22.7353C8.21802 22.8075 8.40511 22.8445 8.59401 22.8443V22.8443ZM3.00134 15C3.00134 16.6571 2.98633 18.2992 3.07939 19.9533C3.17245 21.8746 3.61074 23.5798 5.01566 24.9847C6.42359 26.3927 8.12571 26.828 10.047 26.9211C11.7041 27.0141 13.3461 26.9991 15.0002 26.9991C16.6573 26.9991 18.2994 27.0141 19.9535 26.9211C21.8747 26.828 23.5799 26.3897 24.9848 24.9847C26.3927 23.5768 26.828 21.8746 26.9211 19.9533C27.0141 18.2962 26.9991 16.6541 26.9991 15C26.9991 13.3459 27.0141 11.7008 26.9211 10.0467C26.828 8.12536 26.3897 6.4202 24.9848 5.01525C23.5769 3.6073 21.8747 3.17201 19.9535 3.07895C18.2964 2.98588 16.6543 3.00089 15.0002 3.00089C13.3431 3.00089 11.7011 2.98588 10.047 3.07895C8.12571 3.17201 6.42058 3.61031 5.01566 5.01525C3.60774 6.42321 3.17245 8.12536 3.07939 10.0467C2.98333 11.7008 3.00134 13.3429 3.00134 15V15ZM5.64307 7.92122C5.86222 7.37485 6.12639 6.96657 6.54967 6.54629C6.97295 6.123 7.37821 5.85882 7.92457 5.63968C9.50361 5.01225 13.2531 5.15335 15.0032 5.15335C16.7534 5.15335 20.5058 5.01225 22.0849 5.63667C22.6312 5.85582 23.0395 6.12 23.4598 6.54329C23.8831 6.96657 24.1472 7.37185 24.3664 7.91821C24.9908 9.50028 24.8497 13.2498 24.8497 15C24.8497 16.7502 24.9908 20.5027 24.3664 22.0818C24.1472 22.6282 23.8831 23.0364 23.4598 23.4567C23.0365 23.877 22.6312 24.1442 22.0849 24.3633C20.5058 24.9877 16.7534 24.8467 15.0032 24.8467C13.2531 24.8467 9.50061 24.9877 7.92157 24.3633C7.37521 24.1442 6.96694 23.88 6.54667 23.4567C6.12339 23.0334 5.85922 22.6282 5.64007 22.0818C5.01566 20.5027 5.15675 16.7502 5.15675 15C5.15675 13.2498 5.01566 9.50028 5.64307 7.92122Z" fill="#777C9B"/>
</svg>
