<svg width="30" height="30" viewBox="0 0 30 30" fill="none" xmlns="http://www.w3.org/2000/svg">
<path d="M12.715 15L17.1337 10.58C17.2531 10.4647 17.3484 10.3268 17.4139 10.1743C17.4794 10.0218 17.5139 9.85773 17.5153 9.69175C17.5168 9.52578 17.4851 9.36118 17.4223 9.20756C17.3594 9.05394 17.2666 8.91437 17.1492 8.79701C17.0319 8.67964 16.8923 8.58682 16.7387 8.52397C16.5851 8.46112 16.4205 8.42949 16.2545 8.43094C16.0885 8.43238 15.9245 8.46686 15.772 8.53237C15.6195 8.59788 15.4816 8.69311 15.3663 8.8125L10.0625 14.1163C9.82816 14.3507 9.69652 14.6685 9.69652 15C9.69652 15.3315 9.82816 15.6493 10.0625 15.8837L15.3663 21.1875C15.602 21.4152 15.9178 21.5412 16.2455 21.5383C16.5732 21.5355 16.8868 21.404 17.1185 21.1723C17.3503 20.9405 17.4817 20.627 17.4846 20.2993C17.4874 19.9715 17.3614 19.6558 17.1337 19.42L12.715 15ZM15 27.5C8.09625 27.5 2.5 21.9037 2.5 15C2.5 8.09625 8.09625 2.5 15 2.5C21.9037 2.5 27.5 8.09625 27.5 15C27.5 21.9037 21.9037 27.5 15 27.5Z" fill="#777C9B"/>
</svg>
