<svg width="18" height="15" viewBox="0 0 24 20" fill="none" xmlns="http://www.w3.org/2000/svg">
<path d="M9.99999 1.66667C8.35182 1.66667 6.74065 2.15541 5.37024 3.07109C3.99983 3.98676 2.93173 5.28825 2.301 6.81097C1.67027 8.33369 1.50524 10.0092 1.82678 11.6258C2.14833 13.2423 2.942 14.7271 4.10744 15.8926C5.27287 17.058 6.75773 17.8517 8.37424 18.1732C9.99075 18.4948 11.6663 18.3297 13.189 17.699C14.7117 17.0683 16.0132 16.0002 16.9289 14.6298C17.8446 13.2593 18.3333 11.6482 18.3333 10C18.3333 8.90565 18.1178 7.82202 17.699 6.81097C17.2802 5.79992 16.6664 4.88126 15.8925 4.10744C15.1187 3.33362 14.2001 2.71979 13.189 2.301C12.178 1.88221 11.0943 1.66667 9.99999 1.66667V1.66667ZM9.99999 16.6667C8.68145 16.6667 7.39252 16.2757 6.29619 15.5431C5.19986 14.8106 4.34538 13.7694 3.8408 12.5512C3.33621 11.333 3.20419 9.9926 3.46143 8.6994C3.71866 7.40619 4.3536 6.2183 5.28595 5.28595C6.2183 4.3536 7.40618 3.71867 8.69939 3.46143C9.9926 3.2042 11.333 3.33622 12.5512 3.8408C13.7694 4.34539 14.8106 5.19987 15.5431 6.2962C16.2757 7.39253 16.6667 8.68146 16.6667 10C16.6667 11.7681 15.9643 13.4638 14.714 14.714C13.4638 15.9643 11.7681 16.6667 9.99999 16.6667V16.6667Z" fill="#FD934B"/>
<path d="M9.99998 5.83333C9.17589 5.83333 8.37031 6.0777 7.68511 6.53554C6.9999 6.99338 6.46585 7.64413 6.15048 8.40548C5.83512 9.16684 5.7526 10.0046 5.91338 10.8129C6.07415 11.6211 6.47098 12.3636 7.0537 12.9463C7.63642 13.529 8.37885 13.9258 9.18711 14.0866C9.99536 14.2474 10.8331 14.1649 11.5945 13.8495C12.3559 13.5341 13.0066 13.0001 13.4644 12.3149C13.9223 11.6297 14.1667 10.8241 14.1667 10C14.1667 8.89493 13.7277 7.83512 12.9463 7.05372C12.1649 6.27232 11.1051 5.83333 9.99998 5.83333V5.83333Z" fill="#FD934B"/>
</svg>
