<svg width="30" height="30" viewBox="0 0 30 30" fill="none" xmlns="http://www.w3.org/2000/svg">
<path d="M17.285 15L12.8663 19.42C12.6386 19.6558 12.5126 19.9715 12.5154 20.2993C12.5183 20.627 12.6497 20.9405 12.8815 21.1723C13.1132 21.404 13.4268 21.5355 13.7545 21.5383C14.0822 21.5412 14.398 21.4152 14.6337 21.1875L19.9375 15.8837C20.1718 15.6493 20.3035 15.3315 20.3035 15C20.3035 14.6685 20.1718 14.3507 19.9375 14.1163L14.6337 8.8125C14.398 8.5848 14.0822 8.45881 13.7545 8.46166C13.4268 8.46451 13.1132 8.59597 12.8815 8.82773C12.6497 9.05949 12.5183 9.373 12.5154 9.70075C12.5126 10.0285 12.6386 10.3442 12.8663 10.58L17.285 15ZM15 27.5C8.09625 27.5 2.5 21.9037 2.5 15C2.5 8.09625 8.09625 2.5 15 2.5C21.9037 2.5 27.5 8.09625 27.5 15C27.5 21.9037 21.9037 27.5 15 27.5Z" fill="#777C9B"/>
</svg>
