<?xml version="1.0" encoding="utf-8"?>
<!-- Generator: Adobe Illustrator 24.1.3, SVG Export Plug-In . SVG Version: 6.00 Build 0)  -->
<svg version="1.1" id="Layer_1" xmlns="http://www.w3.org/2000/svg" xmlns:xlink="http://www.w3.org/1999/xlink" x="0px" y="0px"
	 viewBox="0 0 30 30" style="enable-background:new 0 0 30 30;" xml:space="preserve">
<style type="text/css">
	.st0{fill:#FF7E3D;}
</style>
<path class="st0" d="M15,26.7c1.4,0,2.8,0.1,4.2,0.2l0.3-1.2l0,0l2.2-7.8c0-0.2,0.3-0.1,0.3,0v9.3c0,0.1,0,0.1,0.1,0.1
	c1.9,0.3,3.8,0.7,5.6,1.2c0.5,0.2,1.1-0.1,1.2-0.6c0-0.1,0-0.2,0-0.3V2.5c0-0.6-0.5-1-1-1.1h-7.1c-0.8,0-1.5,0.5-1.7,1.2l-3.9,13.8
	c0,0.1-0.1,0.1-0.1,0.1c-0.1,0-0.1,0-0.1-0.1L11.1,2.7C10.8,2,10.1,1.5,9.4,1.5H2C1.5,1.5,1,2,1,2.5v25.2c0,0.1,0,0.2,0,0.3
	c0.2,0.5,0.7,0.8,1.2,0.6c1.8-0.5,3.7-0.9,5.6-1.2C8,27.4,8,27.4,8,27.3V18c0-0.2,0.2-0.2,0.3,0l2.2,7.8l0,0l0.3,1.2
	C12.2,26.8,13.6,26.7,15,26.7z"/>
</svg>
