<svg width="80" height="95" viewBox="0 0 121 140" fill="none" xmlns="http://www.w3.org/2000/svg">
<g clip-path="url(#clip0)">
<path d="M117.24 135.22L16.7301 137C16.3149 137.018 15.9014 136.937 15.524 136.763C15.1465 136.589 14.8161 136.327 14.5601 136C0.210103 116 -1.9099 58.74 1.5701 2.54001C1.61361 1.87512 1.91072 1.2523 2.40012 0.800118C2.88952 0.347936 3.53385 0.100905 4.2001 0.110015L103.51 0.680015C103.859 0.6811 104.205 0.752506 104.526 0.889975C104.847 1.02744 105.137 1.22816 105.378 1.48014C105.62 1.73213 105.809 2.03022 105.933 2.35663C106.057 2.68305 106.114 3.0311 106.1 3.38002C104.02 56.08 104.1 108.5 119.36 131.17C119.625 131.558 119.779 132.01 119.806 132.479C119.834 132.948 119.733 133.415 119.516 133.831C119.298 134.247 118.971 134.596 118.57 134.841C118.169 135.085 117.71 135.217 117.24 135.22V135.22Z" fill="#F5F8FF"/>
<path d="M117.28 137.33L16.7602 139.15C16.3406 139.158 15.9253 139.066 15.5493 138.879C15.1732 138.693 14.8477 138.419 14.6002 138.08C0.240184 118.09 -1.87982 60.74 1.60018 4.48002C1.63126 3.80625 1.92296 3.17092 2.41368 2.70819C2.9044 2.24545 3.55575 1.99152 4.23018 2.00002L103.54 2.58002C103.889 2.58111 104.235 2.65251 104.556 2.78998C104.877 2.92745 105.167 3.12817 105.408 3.38015C105.65 3.63214 105.839 3.93023 105.963 4.25664C106.087 4.58306 106.144 4.93111 106.13 5.28002C104.06 58.04 104.13 110.54 119.4 133.28C119.661 133.669 119.813 134.121 119.838 134.588C119.864 135.056 119.763 135.521 119.546 135.936C119.329 136.351 119.003 136.699 118.605 136.945C118.206 137.19 117.748 137.323 117.28 137.33V137.33Z" fill="url(#paint0_linear)"/>
<path d="M117.26 135.21L17.3802 137C16.9664 137.018 16.5543 136.937 16.1785 136.763C15.8027 136.589 15.474 136.327 15.2202 136C1.00019 116.24 -1.12981 59.65 2.32019 4.13C2.3708 3.47129 2.66933 2.85627 3.15556 2.40901C3.64179 1.96175 4.27955 1.71553 4.94019 1.72L103.62 2.28C103.971 2.27948 104.318 2.35056 104.641 2.48888C104.963 2.62721 105.254 2.82987 105.496 3.08447C105.737 3.33907 105.924 3.64027 106.045 3.96963C106.167 4.29899 106.219 4.6496 106.2 5C104.13 57.07 104.2 108.86 119.36 131.26C119.608 131.643 119.749 132.085 119.768 132.541C119.788 132.997 119.685 133.449 119.471 133.852C119.257 134.255 118.939 134.593 118.55 134.832C118.162 135.071 117.716 135.201 117.26 135.21Z" fill="url(#paint1_linear)"/>
<path d="M119.36 131.17C108.58 116.63 105.79 88.17 105.23 55.64C105.01 39.57 105.46 22.46 106.13 5.32002C106.137 5.07471 106.114 4.82944 106.06 4.59002C106.06 4.19002 106.06 3.78002 106.06 3.38002C106.073 3.0311 106.016 2.68305 105.892 2.35663C105.768 2.03022 105.58 1.73213 105.338 1.48014C105.097 1.22816 104.807 1.02744 104.486 0.889975C104.165 0.752506 103.819 0.6811 103.47 0.680015L4.20003 0.110015C3.53378 0.100905 2.88945 0.347936 2.40005 0.800118C1.91065 1.2523 1.61354 1.87512 1.57003 2.54001C0.420031 21 -0.109969 39.64 0.190031 57C0.690031 93.29 4.79003 124.41 14.6 138.08C14.8475 138.419 15.1731 138.693 15.5491 138.879C15.9251 139.066 16.3405 139.158 16.76 139.15L117.28 137.33C119.21 137.29 121.13 133.55 119.36 131.17Z" stroke="url(#paint2_linear)" stroke-width="0.21" stroke-miterlimit="10"/>
</g>
<defs>
<linearGradient id="paint0_linear" x1="59.7117" y1="44.3245" x2="59.4488" y2="132.362" gradientUnits="userSpaceOnUse">
<stop stop-color="#C9D5E5"/>
<stop offset="1" stop-color="#E6EDF5"/>
</linearGradient>
<linearGradient id="paint1_linear" x1="59.8537" y1="43.0026" x2="60.4648" y2="130.138" gradientUnits="userSpaceOnUse">
<stop stop-color="#E6EBF5"/>
<stop offset="1" stop-color="#F7FBFF"/>
</linearGradient>
<linearGradient id="paint2_linear" x1="59.9074" y1="-0.100492" x2="60.1681" y2="139.183" gradientUnits="userSpaceOnUse">
<stop stop-color="#C9D5E5"/>
<stop offset="1" stop-color="#D6E1F0"/>
</linearGradient>
<clipPath id="clip0">
<rect width="120.17" height="139.26" fill="white"/>
</clipPath>
</defs>
</svg>
