<?xml version="1.0" standalone="no"?>
<!DOCTYPE svg PUBLIC "-//W3C//DTD SVG 20010904//EN"
 "http://www.w3.org/TR/2001/REC-SVG-20010904/DTD/svg10.dtd">
<svg version="1.0" xmlns="http://www.w3.org/2000/svg"
 width="700.000000pt" height="700.000000pt" viewBox="0 0 700.000000 700.000000"
 preserveAspectRatio="xMidYMid meet">
<metadata>
Created by potrace 1.11, written by Peter Selinger 2001-2013
</metadata>
<g transform="translate(0.000000,700.000000) scale(0.100000,-0.100000)"
fill="#000000" stroke="none">
<path d="M302 6778 c-88 -15 -156 -68 -191 -151 l-21 -49 0 -3080 c0 -2309 3
-3090 12 -3119 25 -86 123 -159 211 -159 25 0 72 7 104 16 32 9 90 25 128 35
84 24 68 19 242 63 134 34 256 62 313 72 14 2 45 9 70 14 25 5 59 12 75 15 17
3 66 13 110 21 110 21 113 21 264 44 74 11 138 23 143 28 5 5 9 532 9 1180 0
1112 0 1172 17 1181 10 5 23 7 29 3 13 -9 33 -48 39 -75 2 -12 11 -44 19 -72
19 -65 114 -391 210 -725 42 -146 83 -287 91 -315 8 -27 19 -66 23 -85 8 -32
57 -201 80 -275 31 -98 133 -468 157 -566 l28 -117 75 4 c42 3 99 7 126 9 305
27 1322 27 1670 0 148 -12 205 -13 206 -7 0 4 2 14 4 22 2 8 7 29 10 45 3 17
12 53 20 80 8 28 16 61 18 75 3 14 53 192 112 395 58 204 140 487 181 630 41
143 78 274 83 290 12 37 182 622 189 650 11 42 42 53 64 21 4 -6 8 -535 7
-1175 0 -673 3 -1167 9 -1173 5 -5 55 -15 113 -24 57 -8 115 -17 129 -19 14
-3 66 -12 115 -20 98 -17 103 -18 185 -35 30 -6 67 -13 81 -15 126 -22 471
-108 693 -172 156 -45 247 -19 321 88 l30 44 3 3100 c2 2871 1 3103 -14 3144
-23 61 -75 115 -137 141 l-52 23 -940 0 c-713 0 -954 -3 -999 -12 -131 -28
-256 -133 -304 -257 -17 -42 -55 -170 -67 -222 -2 -9 -83 -298 -181 -642 -97
-344 -184 -654 -194 -690 -17 -64 -62 -224 -175 -625 -109 -384 -237 -841
-281 -1000 -24 -88 -48 -170 -54 -182 -10 -23 -44 -31 -54 -14 -3 5 -31 98
-62 208 -30 109 -76 270 -101 358 -24 88 -46 167 -48 175 -3 8 -23 80 -45 160
-23 80 -47 168 -55 195 -27 100 -168 599 -190 675 -18 61 -153 542 -161 575
-5 19 -84 300 -109 385 -14 47 -61 212 -104 367 -49 171 -91 301 -107 329 -54
92 -137 158 -246 195 -63 22 -67 22 -975 23 -501 0 -929 -2 -951 -6z"/>
</g>
</svg>
